#!OML:ASF E:\Style4\Style4.ASF
:FULLY-SPECIFIED
:DEGREES
857
root 0.373676 16.9096 -0.478694 8.29094 -4.88372 4.00548
lowerback 7.58323 1.54514 0.128628
upperback -0.643965 2.00135 -1.41809
thorax -4.86787 0.967416 -1.77767
lowerneck 3.49187 -3.32735 -7.60934
upperneck 0.404323 -4.70387 4.09663
head -0.181113 -2.38796 2.66638
rclavicle 1.25234e-014 -1.47101e-014
rhumerus -96.1805 57.5916 -134.678
rradius 83.4668
rwrist 3.53965
rhand -15.5906 37.555
rfingers 7.12502
rthumb 10.5951 7.84207
lclavicle 1.25234e-014 -1.47101e-014
lhumerus -39.9228 -5.03508 64.4211
lradius 59.7005
lwrist 44.0656
lhand -2.2974 22.414
lfingers 7.12502
lthumb 23.3881 51.0129
rfemur -31.366 5.40648 12.0264
rtibia 53.051
rfoot -27.6298 -14.2175
rtoes -16.9298
lfemur -28.0863 0.99502 -25.0925
ltibia 50.0227
lfoot -29.1841 9.48938
ltoes -17.322
858
root 0.367437 16.9174 -0.471213 8.09782 -4.34633 4.12215
lowerback 7.65787 1.36427 0.0518287
upperback -0.553702 1.75464 -1.39233
thorax -4.82622 0.84824 -1.67969
lowerneck 3.55404 -3.32892 -7.56466
upperneck 0.303378 -4.70821 3.99299
head -0.227186 -2.38843 2.62647
rclavicle -5.96354e-016 -1.31198e-014
rhumerus -96.1454 57.6489 -134.654
rradius 83.4234
rwrist 3.43582
rhand -15.5271 37.6413
rfingers 7.12502
rthumb 10.6563 7.93156
lclavicle -5.96354e-016 -1.31198e-014
lhumerus -39.9586 -4.9896 64.4576
lradius 59.6859
lwrist 44.0277
lhand -2.52804 22.529
lfingers 7.12502
lthumb 23.1669 51.1559
rfemur -30.9216 5.0681 12.0394
rtibia 52.9996
rfoot -27.7739 -14.3717
rtoes -16.8605
lfemur -27.7937 0.585671 -25.107
ltibia 49.9237
lfoot -29.1103 9.38925
ltoes -17.3095
859
root 0.364524 16.9199 -0.469072 8.01924 -4.1765 4.15663
lowerback 7.68887 1.30617 0.023627
upperback -0.523019 1.67482 -1.38809
thorax -4.81485 0.809684 -1.65047
lowerneck 3.59634 -3.33132 -7.4825
upperneck 0.240169 -4.71116 3.89328
head -0.258667 -2.38851 2.58
rclavicle 1.11319e-014 7.55382e-015
rhumerus -96.1159 57.6779 -134.667
rradius 83.3979
rwrist 3.32673
rhand -15.4763 37.661
rfingers 7.12502
rthumb 10.7054 7.95371
lclavicle 1.11319e-014 7.55382e-015
lhumerus -39.937 -5.02561 64.474
lradius 59.5817
lwrist 43.9974
lhand -2.55991 22.4883
lfingers 7.12502
lthumb 23.1363 51.119
rfemur -30.7374 5.0131 12.0382
rtibia 52.9649
rfoot -27.8729 -14.3683
rtoes -16.4158
lfemur -27.6591 0.455918 -25.1096
ltibia 49.8633
lfoot -29.0254 9.38923
ltoes -17.3789
860
root 0.364378 16.9202 -0.47031 8.00045 -4.16613 4.10956
lowerback 7.71432 1.30003 0.0774367
upperback -0.532584 1.67184 -1.37815
thorax -4.83803 0.806759 -1.67098
lowerneck 3.57541 -3.32782 -7.46223
upperneck 0.293614 -4.70475 3.87177
head -0.239478 -2.38567 2.56771
rclavicle 7.00716e-015 -1.70955e-014
rhumerus -96.0649 57.6384 -134.639
rradius 83.3731
rwrist 3.30456
rhand -15.3699 37.6115
rfingers 7.12502
rthumb 10.808 7.9096
lclavicle 7.00716e-015 -1.70955e-014
lhumerus -39.9212 -5.06931 64.4875
lradius 59.4927
lwrist 44.0182
lhand -2.44714 22.5776
lfingers 7.12502
lthumb 23.2445 51.1947
rfemur -30.6915 5.03706 12.0884
rtibia 52.9386
rfoot -27.9347 -14.2616
rtoes -15.9415
lfemur -27.6089 0.467328 -25.0502
ltibia 49.817
lfoot -29.0307 9.33506
ltoes -17.3016
861
root 0.364297 16.9213 -0.471517 8.00154 -4.2072 4.08178
lowerback 7.70504 1.31936 0.0886391
upperback -0.534898 1.69906 -1.3706
thorax -4.83434 0.820053 -1.67237
lowerneck 3.55433 -3.32596 -7.46941
upperneck 0.334442 -4.7013 3.88899
head -0.222526 -2.38448 2.57362
rclavicle 1.66482e-014 -1.78906e-014
rhumerus -95.9728 57.6041 -134.56
rradius 83.3583
rwrist 3.32619
rhand -15.3018 37.6364
rfingers 7.12502
rthumb 10.8737 7.93796
lclavicle 1.66482e-014 -1.78906e-014
lhumerus -39.9274 -5.1079 64.5206
lradius 59.488
lwrist 43.9872
lhand -2.39263 22.7043
lfingers 7.12502
lthumb 23.2968 51.3148
rfemur -30.7035 5.06748 12.114
rtibia 52.9351
rfoot -27.9288 -14.2327
rtoes -15.9218
lfemur -27.6113 0.498623 -25.0196
ltibia 49.8025
lfoot -29.102 9.33914
ltoes -17.3089
862
root 0.365502 16.9215 -0.473503 7.98808 -4.22817 4.07028
lowerback 7.70752 1.33324 0.118048
upperback -0.523894 1.71963 -1.38566
thorax -4.82236 0.829412 -1.70677
lowerneck 3.52808 -3.33207 -7.43073
upperneck 0.351711 -4.70619 3.88923
head -0.213105 -2.38693 2.56568
rclavicle -1.35671e-014 -2.38542e-015
rhumerus -95.8727 57.576 -134.485
rradius 83.3517
rwrist 3.40162
rhand -15.212 37.6983
rfingers 7.12502
rthumb 10.9603 8.00437
lclavicle -1.35671e-014 -2.38542e-015
lhumerus -39.9068 -5.14572 64.5176
lradius 59.4854
lwrist 43.9587
lhand -2.3249 22.7995
lfingers 7.12502
lthumb 23.3617 51.4017
rfemur -30.7023 5.06308 12.1199
rtibia 52.9386
rfoot -27.9161 -14.2307
rtoes -15.9925
lfemur -27.6052 0.513581 -25.0146
ltibia 49.7954
lfoot -29.0847 9.37834
ltoes -17.3776
